<?xml version="1.0" standalone="no"?>
<!DOCTYPE svg PUBLIC "-//W3C//DTD SVG 1.1//EN" "http://www.w3.org/Graphics/SVG/1.1/DTD/svg11.dtd" >
<!--
2013-9-30: Created.
-->
<svg>
<metadata>
Created by iconfont
</metadata>
<defs>

<font id="iconfont" horiz-adv-x="1024" >
  <font-face
    font-family="iconfont"
    font-weight="500"
    font-stretch="normal"
    units-per-em="1024"
    ascent="896"
    descent="-128"
  />
    <missing-glyph />
    
    <glyph glyph-name="dianpu" unicode="&#58888;" d="M118.408488 828.095491h226.801061M423.97878 828.095491h226.801061M729.549072 828.095491h226.801061M1017.549072 895.575597H45.665782A49.061008 49.061008 0 0 1 0 846.769231v-206.68435a177.740053 177.740053 0 0 1 108.392573-162.716181v-511.575597a93.3687 93.3687 0 0 1 93.3687-93.3687h654.175067a93.3687 93.3687 0 0 1 93.3687 93.3687v509.28382a177.655172 177.655172 0 0 1 113.570292 165.092838V846.769231a49.061008 49.061008 0 0 1-45.32626 48.806366z m-161.27321-955.671088H201.761273a25.464191 25.464191 0 0 0-25.464191 25.464191V463.023873h0.848807a177.655172 177.655172 0 0 1 177.145888 177.061008 177.145889 177.145889 0 1 1 354.291777 0 177.570292 177.570292 0 0 1 172.816977-176.891247v-497.824934a25.464191 25.464191 0 0 0-25.464191-25.464191z"  horiz-adv-x="1062" />

    
    <glyph glyph-name="tubiao-" unicode="&#58889;" d="M658.4 65.12a16 16 0 0 1-14.32 8.88H534v112h-80v-112H344a16 16 0 0 1-14.32-8.88l-24-80a16 16 0 0 1 14.32-23.2h348.08a16 16 0 0 1 14.32 23.2zM720 653.68V696h34.72v58H233.28V696h34.72v-42.16h-2.08a124 124 0 1 1 13.04-247.28 226.8 226.8 0 0 1 215.04-156.56A226.8 226.8 0 0 1 708.8 406.24h5.2a123.92 123.92 0 0 1 5.92 248z m-453.92-216a92 92 0 0 0 0 184h2.08v-145.76a224.88 224.88 0 0 1 3.2-37.68c-1.84-0.08-3.6-0.24-5.36-0.24z m286.64 24.8l-58.72 31.12-58.64-30.8 11.2 65.2-47.44 46.24 65.6 9.76 29.28 59.44L523.28 584l65.52-9.52L541.44 528z m164.08-24.64a224.8 224.8 0 0 1 3.2 38.08V621.68a91.92 91.92 0 0 0-3.28-183.6zM183.12 326l-4.4-22.48-22.48-4.4 22.48-4.4 4.4-22.48 4.4 22.48 22.48 4.4-22.48 4.4-4.4 22.48zM811.12 728.24l10.32 52.56 52.56 10.32-52.56 10.32-10.32 52.56-10.32-52.56-52.56-10.32 52.56-10.32 10.32-52.56zM884.88 696.88l-5.76 29.12-5.76-29.12-29.12-5.76 29.12-5.76 5.76-29.12 5.76 29.12 29.12 5.76-29.12 5.76z"  horiz-adv-x="1024" />

    
    <glyph glyph-name="baomuyuesao-" unicode="&#58890;" d="M372.72 472A571.04 571.04 0 0 0 280 592.4a533.68 533.68 0 0 1-39.6-205.44C240.48 168.8 362-8 512-8c137.36 0 250.8 148.32 268.96 340.8a271.12 271.12 0 0 0-82.96-12.4c-105.2 0-226.8 52.8-325.28 151.6zM488.72 419.36c7.44-4.72 14.96-9.28 22.56-13.6 5.44 3.76 10.8 8 16 11.68a82.24 82.24 0 0 0-38.72 1.84zM443.6 451.36A84 84 0 1 0 592 473.36a506.88 506.88 0 0 1 118.16 184c-49.52 76.56-120 124.48-197.76 124.48-87.52 0-165.28-60.24-214.96-153.76a531.44 531.44 0 0 1 97.84-133.76 555.76 555.76 0 0 1 48.32-42.96zM730.32 621.76A550.96 550.96 0 0 0 611.28 448a579.92 579.92 0 0 0-68.24-58.32c85.68-40 172.8-48.8 240-21.92v19.6a520.96 520.96 0 0 1-52.72 234.4z"  horiz-adv-x="1024" />

    
    <glyph glyph-name="shipinzhizuo-" unicode="&#58891;" d="M768 592v-24h-48v72L624 736H312a96 96 0 0 1-96-96v-512a96 96 0 0 1 96-96h400a96 96 0 0 1 96 96V552zM304 128h-48V208h48z m0 146.64h-48v80h48z m0 146.64h-48v80h48zM304 568h-48V648h48z m275.2-200l-86.4-49.6a18.24 18.24 0 0 0-27.36 16V433.84a18.24 18.24 0 0 0 27.36 16L579.2 400a18.24 18.24 0 0 0 0-32zM768 128h-48V208h48z m0 146.64h-48v80h48z m0 146.64h-48v80h48zM712 640v-48h56l40-40H720a96 96 0 0 0-96 96V736l96-96z"  horiz-adv-x="1024" />

    
    <glyph glyph-name="icon-test" unicode="&#58894;" d="M234.4 257.52c0-99.632 128.405-180.4 286.8-180.4s286.8 80.768 286.8 180.4c0 99.632-128.405 180.4-286.8 180.4-158.395 0-286.8-80.768-286.8-180.4zM194.363 452.342c0-0 0-0 0-0 19.573-33.901 53.586-50.907 75.97-37.984 22.384 12.923 24.663 50.882 5.090 84.784-0 0-0 0-0 0-19.573 33.901-53.586 50.907-75.97 37.984-22.384-12.923-24.663-50.882-5.090-84.784 0-0 0-0 0-0zM344.94 554.142c0-0 0-0 0-0 8.737-46.821 41.98-79.895 74.251-73.873 32.271 6.022 51.349 48.859 42.612 95.68-0 0-0 0-0 0-0 0-0 0-0 0-8.737 46.821-41.98 79.895-74.251 73.873-32.271-6.022-51.349-48.859-42.612-95.68zM613.23 492.57c0-0 0-0 0-0 34.245-4.588 68.341 38.98 76.155 97.31 7.814 58.33-13.613 109.335-47.858 113.923-0 0-0 0-0 0-0 0-0 0-0 0-34.245 4.588-68.341-38.98-76.155-97.31-7.814-58.33 13.613-109.335 47.858-113.923 0-0 0-0 0-0zM758.202 408.547c0-0 0-0 0-0 21.963-12.68 57.175 7.19 78.648 44.382 21.473 37.192 21.075 77.622-0.888 90.302-0 0-0 0-0 0-21.963 12.68-57.175-7.19-78.648-44.382-21.473-37.192-21.075-77.622 0.888-90.302z"  horiz-adv-x="1024" />

    
    <glyph glyph-name="tubiao-1" unicode="&#58895;" d="M692 648c-0 0-0 0-0 0-23.287 0-45.014-6.673-63.376-18.211 2.327 8.144 3.376 17.161 3.376 26.423 0 66.274-53.726 120-120 120-66.274 0-120-53.726-120-120 0-9.262 1.049-18.279 3.036-26.939-18.116 12.1-39.955 18.8-63.359 18.8-66.274 0-120-53.726-120-120 0-62.473 47.739-113.796 108.728-119.478l55.595-352.596h272l2.48 16h-218.48v144h16v-128h56v304h16v-304h56v128h16v-128h61.040l50.080 320.56c61.106 6.094 108.429 57.241 108.429 119.441 0 66.116-53.469 119.743-119.525 119.999z"  horiz-adv-x="1024" />

    
    <glyph glyph-name="tubiao-2" unicode="&#58896;" d="M560.88 237.2h69.68v-15.44h-69.68zM698.24 444.56v251.44h-46.56v-251.44h-279.36v251.44h-46.56v-251.44h-139.76v-372.56h651.92v372.56zM505.12 296h-108.96v-90.72l-44.16-9.36v33.92l8 2.4v88.56h54.24l-1.84 8.8h45.84l1.68-8.8h44.88zM667.84 199.52h-143.44v60h143.44zM673.2 264h-154.32v23.36h61.12v11.28h-22.16l-2.88-8.48h-34.96v23.44h8.72l5.52 13.76h33.76l-2.32-6.64h14.32v8h38.64v-8h49.040v-22h-49.040v-11.36h54.56z"  horiz-adv-x="1024" />

    
    <glyph glyph-name="tubiao-3" unicode="&#58897;" d="M867.84 743.36c-2.515 2.494-5.977 4.034-9.8 4.034s-7.285-1.541-9.801-4.035l-405.439-405.519c-23.222 17.741-52.659 28.426-84.592 28.426-38.502 0-73.375-15.533-98.696-40.674l-107.512-107.432 149.040-149.040c14.229 6.371 25.014 18.284 29.738 32.919-1.977-5.294-1.976-5.454-1.976-5.614 0-15.337-5.701-29.342-15.099-40.012l35.898-35.773 107.44 107.36c18.923 18.934 32.371 43.34 37.768 70.641l-134.808 103.039 9.84 9.84 122.4-122.4c3.275 11.289 5.159 24.257 5.159 37.666 0 35.371-13.11 67.681-34.736 92.334l404.937 404.641c2.566 2.527 4.156 6.038 4.156 9.921 0 3.763-1.493 7.177-3.919 9.683z"  horiz-adv-x="1024" />

    
    <glyph glyph-name="tubiao-4" unicode="&#58898;" d="M572.16 691.52C381.28 722.16 202.4 581.28 200 388a312 312 0 0 1 392.56-305.44 2.96 2.96 0 0 1-0.4 5.84 75.12 75.12 0 0 0-29.44 9.92 81.84 81.84 0 0 0-42.64 72A80 80 0 0 0 600 248c101.84 0 224 80 223.52 152.64 0 163.44-111.52 268.4-251.36 290.88zM324 360a60 60 0 1 0 60 60 60 60 0 0 0-60-60z m137.68 152a58.8 58.8 0 1 0 21.52 80 58.8 58.8 0 0 0-21.52-80z m153.44-4.88A59.28 59.28 0 1 0 696 528.72a59.28 59.28 0 0 0-80.88-21.68zM708 352a60 60 0 1 0 60 60 60 60 0 0 0-60-60z"  horiz-adv-x="1024" />

    
    <glyph glyph-name="tubiao-5" unicode="&#58899;" d="M761.12 688h-145.12c-2.4-48.96-48-88-104-88s-101.36 39.040-104 88h-145.12l-150.88-150.64 113.36-113.36 38.64 38.88v-430.88h496v430.88l38.64-38.88 113.36 113.36z"  horiz-adv-x="1024" />

    
    <glyph glyph-name="tubiao-6" unicode="&#58900;" d="M544 302.16v361.84c0 17.673-14.327 32-32 32s-32-14.327-32-32v-361.84c-120.96-13.2-214.4-100.48-214.4-206.16h492.8c0 105.68-93.44 192.96-214.4 206.16zM264 88h496v-16h-496z"  horiz-adv-x="1024" />

    
    <glyph glyph-name="tubiao--copy" unicode="&#58901;" d="M569.432 404.182l331.222 331.222c16.178 16.178 16.176 42.406 0 58.582s-42.406 16.176-58.582 0l-331.222-331.222c-122.807 98.642-288.234 104.279-384.972 7.542l451.099-451.095c96.737 96.737 91.098 262.164-7.542 384.972zM117.089 464.449l454.029-454.028-14.646-14.646-454.029 454.029z"  horiz-adv-x="1024" />

    
    <glyph glyph-name="tubiao-7" unicode="&#58902;" d="M512 690.16l99.52-201.52 222.4-32.4-160.96-156.88 38-221.52L512 182.4l-198.96-104.56 38 221.52-160.96 156.88 222.4 32.4L512 690.16z"  horiz-adv-x="1024" />

    
    <glyph glyph-name="tubiao-8" unicode="&#58903;" d="M384 512c0-70.692 57.308-128 128-128s128 57.308 128 128c0 70.692-57.308 128-128 128-70.692 0-128-57.308-128-128zM512 384c-146.64 0-266.64-110.4-266.64-245.36v-10.64h533.28v10.64c0 134.96-120 245.36-266.64 245.36z"  horiz-adv-x="1024" />

    
    <glyph glyph-name="tubiao-9" unicode="&#58904;" d="M744 692h-464c-53.019 0-96-42.981-96-96v-288c0-53.019 42.981-96 96-96h200v-104h-96c-8.837 0-16-7.163-16-16s7.163-16 16-16h256c8.837 0 16 7.163 16 16s-7.163 16-16 16h-96v104h200c53.019 0 96 42.981 96 96v288c0 53.019-42.981 96-96 96zM450.24 548.64l20.96-20.64c2.897-2.897 6.899-4.689 11.32-4.689 8.841 0 16.009 7.167 16.009 16.009 0 4.421-1.792 8.423-4.689 11.32l-20.96 20.96c6.131 3.049 13.353 4.833 20.991 4.833 26.51 0 48-21.49 48-48 0-7.765-1.844-15.099-5.117-21.588 2.589-1.104 4.594-3.034 6.023-5.356l31.383-30.769c2.887-2.917 4.671-6.93 4.671-11.36 0-8.92-7.231-16.151-16.151-16.151-4.49 0-8.551 1.832-11.479 4.789l-33.921 33.921c-1.878 1.948-3.269 4.378-3.969 7.086-4.725-6.873-12.060-8.717-19.824-8.717-26.51 0-48 21.49-48 48 0 7.639 1.784 14.86 4.959 21.272zM824 316c0-48.601-39.399-88-88-88h-448c-48.601 0-88 39.399-88 88v40h624z"  horiz-adv-x="1024" />

    
    <glyph glyph-name="tubiao-10" unicode="&#58905;" d="M736 535.2h-213.12c1.059 0.575 1.935 1.359 2.6 2.302l145.72 145.618c1.196 1.39 1.924 3.212 1.924 5.204 0 4.418-3.582 8-8 8-1.992 0-3.814-0.728-5.214-1.933l-147.109-147.031c-0.72-0.878-1.25-1.94-1.51-3.103 0.136 2.962-0.648 3.838-1.592 4.503l-145.618 145.64c-1.476 1.716-3.65 2.796-6.076 2.796-4.418 0-8-3.582-8-8 0-2.426 1.080-4.6 2.786-6.067l147.131-147.129c0.878-0.72 1.94-1.25 3.103-1.51l-215.023 0.71c-53.019 0-96-42.981-96-96v-272c0-53.019 42.981-96 96-96h448c53.019 0 96 42.981 96 96v272c0 53.019-42.981 96-96 96zM511.2 536c0.72 0.878 1.25 1.94 1.51 3.103-0.283-2.922 0.56-3.694 1.601-4.016l-4.311 0.113c1.059 0.575 1.935 1.359 2.6 2.302zM816 175.2c0-48.601-39.399-88-88-88h-432c-48.601 0-88 39.399-88 88v256c0 48.601 39.399 88 88 88h432c48.601 0 88-39.399 88-88zM728 503.2h-432c-39.765 0-72-32.235-72-72v-256c0-39.765 32.235-72 72-72h432c39.765 0 72 32.235 72 72v256c0 39.765-32.235 72-72 72zM573.76 239.2c-2.896-2.899-6.899-4.693-11.32-4.693s-8.424 1.793-11.32 4.692l-33.92 33.92c-1.878 1.948-3.269 4.378-3.969 7.086-4.725-6.873-12.060-8.717-19.824-8.717-26.51 0-48 21.49-48 48 0 7.639 1.784 14.86 4.959 21.272l20.835-21.24c2.897-2.897 6.899-4.689 11.32-4.689 8.841 0 16.009 7.167 16.009 16.009 0 4.421-1.792 8.423-4.689 11.32l-20.96 20.96c6.131 3.049 13.353 4.833 20.991 4.833 26.51 0 48-21.49 48-48 0-7.765-1.844-15.099-5.117-21.588 2.589-1.104 4.594-3.034 6.023-5.356l31.383-30.769c2.979-2.908 4.826-6.964 4.826-11.451 0-4.68-2.010-8.892-5.213-11.817z"  horiz-adv-x="1024" />

    
    <glyph glyph-name="tubiao-11" unicode="&#58906;" d="M862.16 304l-31.2 176.96c-4.162 22.347-23.51 39.040-46.757 39.040-0.071 0-0.142-0-0.214-0l-543.989 0c-23.333-0-42.738-16.816-46.756-38.99l-31.404-177.010c-0.485-2.55-0.763-5.482-0.763-8.48 0-26.245 21.275-47.52 47.52-47.52 0.015 0 0.030 0 0.045 0l606.718-0c0.013-0 0.028-0 0.043-0 26.245 0 47.52 21.275 47.52 47.52 0 2.998-0.278 5.93-0.808 8.774zM672 312h-456v16h456zM760 312h-40v16h40z"  horiz-adv-x="1024" />

    
    <glyph glyph-name="tubiao-12" unicode="&#58907;" d="M477.76 510.72c0-69.986 56.734-126.72 126.72-126.72s126.72 56.734 126.72 126.72c0 69.986-56.734 126.72-126.72 126.72-69.986 0-126.72-56.734-126.72-126.72zM604.48 384c-145.2 0-264-109.28-264-242.88v-10.56h528v10.56c0 133.6-118.8 242.88-264 242.88zM478.8 447.44c-10.708 18.093-17.036 39.877-17.036 63.138 0 15.349 2.755 30.055 7.798 43.65-20.031 27.455-52.452 45.756-89.148 45.756-59.647 0-108-48.353-108-108 0-59.647 48.353-108 108-108 43.503 0 80.998 25.721 98.108 62.785zM343.28 230.72c14.872 33.515 36.061 61.767 62.266 84.361l-38.826-42.841c23.688 33.322 54.466 60.085 90.259 78.461l-58.979-42.141c29.643 28.562 66.111 50.251 106.707 62.372-37.598-11.263-0.676 3.484 39.094 9.592-92.938-4.484-127.071 3.476-163.063 3.476-0.090 0-0.181-0-0.271-0-123.746 0-224.946-93.12-224.946-206.96v-9.040h170.64c0.64 5.12 1.44 10.16 2.4 15.12v1.84c5.7 27.856 15.759 52.568 29.551 74.714z"  horiz-adv-x="1024" />

    
    <glyph glyph-name="tubiao-13" unicode="&#58908;" d="M803.68 650.64h-496.4c-0 0-0 0-0 0-5.479 0-9.92-4.441-9.92-9.92l0-341.6c-63.448-27.124-136.998-45.245-214.069-50.568 126.229 20.968 125.669 12.328 129.589 7.688q16-19.28 34.64-44.64c3.28-4.56 8.88-3.76 14.24-2.080 37.416 13.78 69.645 33.178 97.442 57.513l-61.842-139.753c-0-5.479 4.441-9.92 9.92-9.92h59.040c5.374 0.134 9.68 4.523 9.68 9.917 0 0.001-0 0.002-0 0.003l0 0.72c0 5.479 4.441 9.92 9.92 9.92h338.88c0 0 0 0 0 0 5.479 0 9.92-4.441 9.92-9.92 0-5.479 4.441-9.92 9.92-9.92h58.96c0.024-0 0.052-0 0.080-0 5.479 0 9.92 4.441 9.92 9.92 0 0-0 0-0 0l0 512.72c0 5.479-4.441 9.92-9.92 9.92zM734.72 216c-0-5.479-4.441-9.92-9.92-9.92h-338.64c-0.071-0.002-0.156-0.003-0.24-0.003-5.479 0-9.92 4.441-9.92 9.92 0 0.001 0 0.002 0 0.003l-0 50.96c82.4 46.24 179.92 107.44 202.24 136 1.83 2.408 4.695 3.947 7.92 3.947 5.479 0 9.92-4.441 9.92-9.92 0-0.009-0-0.019-0-0.028l0-61.759q0.24-47.2-45.68-47.2-26.96 0-48.96 1.28c-0.174 0.011-0.378 0.017-0.582 0.017-5.434 0-9.84-4.406-9.84-9.84 0-0.801 0.096-1.579 0.276-2.324q5.346-22.573 10.066-50.013c0.93-4.592 4.933-8 9.732-8 0.010 0 0.019 0 0.029 0q30.238-0 68.958 2.8 44.080 2.8 67.36 29.68t23.28 78.16v112c0 5.479 4.441 9.92 9.92 9.92l20.4-0c5.479-0 9.92 4.441 9.92 9.92 0 0 0 0 0 0v46.4c0 5.479-4.441 9.92-9.92 9.92h-20.48c-0-0-0.001-0-0.001-0-5.479 0-9.92 4.441-9.92 9.92 0 0.056 0 0.112 0.001 0.168l-0 29.912c0.001 0.048 0.001 0.104 0.001 0.16 0 5.479-4.441 9.92-9.92 9.92-0 0-0.001-0-0.001-0l-54.48 0c-5.479 0-9.92-4.441-9.92-9.92 0 0 0 0 0 0v-30.080c0-5.479-4.441-9.92-9.92-9.92h-176.4c-0.024 0-0.053 0-0.081 0-5.479 0-9.92-4.441-9.92-9.92 0-0.056 0-0.113 0.001-0.169l-0-46.472c0-5.479 4.441-9.92 9.92-9.92 0 0 0 0 0 0l113.12 0c5.497-0.034 9.94-4.498 9.94-10 0-2.707-1.075-5.162-2.822-6.963-22.078-22.397-82.718-62.797-154.158-99.117v236c0 5.479 4.441 9.92 9.92 9.92 0 0 0 0 0 0h338.88c5.479 0 9.92-4.441 9.92-9.92 0 0 0 0 0 0z"  horiz-adv-x="1024" />

    
    <glyph glyph-name="tubiao-14" unicode="&#58909;" d="M718 680h-376c-35.346 0-64-28.654-64-64v-24h28c13.255 0 24-10.745 24-24s-10.745-24-24-24h-28v-16h28c13.255 0 24-10.745 24-24s-10.745-24-24-24h-28v-16h28c13.255 0 24-10.745 24-24s-10.745-24-24-24h-28v-264c0-35.346 28.654-64 64-64h376c35.346 0 64 28.654 64 64v464c0 35.346-28.654 64-64 64zM731.6 234.080v-24h-41.36v-18.48h41.36v-24.56h-41.36v-33.76h-37.36v33.52h-42.72v24.56h42.8v18.4h-42.8v24h34.4l-45.92 80.8h40q27.12-56 34.32-74h0.8c0.64 1.68 1.36 3.84 2.24 6.48q2.080 6.24 16.96 36.64l14.72 30.88h37.84l-47.2-80.8zM258 552h48c8.837 0 16 7.163 16 16s-7.163 16-16 16h-48c-8.837 0-16-7.163-16-16s7.163-16 16-16zM258 488h48c8.837 0 16 7.163 16 16s-7.163 16-16 16h-48c-8.837 0-16-7.163-16-16 0-8.837 7.163-16 16-16zM322 440c0 8.837-7.163 16-16 16h-48c-8.837 0-16-7.163-16-16s7.163-16 16-16h48c8.837 0 16 7.163 16 16z"  horiz-adv-x="1024" />

    
    <glyph glyph-name="tubiao-15" unicode="&#58910;" d="M700 680h-376c-35.346 0-64-28.654-64-64v-24h28c13.255 0 24-10.745 24-24s-10.745-24-24-24h-28v-16h28c13.255 0 24-10.745 24-24s-10.745-24-24-24h-28v-16h28c13.255 0 24-10.745 24-24s-10.745-24-24-24h-28v-264c0-35.346 28.654-64 64-64h376c35.346 0 64 28.654 64 64v464c0 35.346-28.654 64-64 64zM595.36 304h-166.72v3.36c0 42.16 37.52 76.64 83.36 76.64-22.091 0-40 17.909-40 40 0 22.091 17.909 40 40 40 22.091 0 40-17.909 40-40 0-22.091-17.909-40-40-40 45.84 0 83.36-34.48 83.36-76.64zM240 552h48c8.837 0 16 7.163 16 16s-7.163 16-16 16h-48c-8.837 0-16-7.163-16-16s7.163-16 16-16zM240 488h48c8.837 0 16 7.163 16 16s-7.163 16-16 16h-48c-8.837 0-16-7.163-16-16 0-8.837 7.163-16 16-16zM304 440c0 8.837-7.163 16-16 16h-48c-8.837 0-16-7.163-16-16s7.163-16 16-16h48c8.837 0 16 7.163 16 16z"  horiz-adv-x="1024" />

    
    <glyph glyph-name="tubiao-16" unicode="&#58911;" d="M642.4 41.12a16 16 0 0 1-14.32 8.88H518v112h-80v-112H328a16 16 0 0 1-14.32-8.88l-24-80a16 16 0 0 1 14.32-23.2h348.08a16 16 0 0 1 14.32 23.2zM704 629.68V672h34.72v58H217.28V672h34.72v-42.16h-2.08a124 124 0 1 1 13.04-247.28 226.8 226.8 0 0 1 215.04-156.56A226.8 226.8 0 0 1 692.8 382.24h5.2a123.92 123.92 0 0 1 5.92 248z m-453.92-216a92 92 0 0 0 0 184h2.08v-145.76a224.88 224.88 0 0 1 3.2-37.68c-1.84-0.08-3.6-0.24-5.36-0.24zM421.76 464L384 483.84 346.24 464l7.2 42.08L322.88 536l42.24 6.16L384 580.24l18.88-38.24 42.24-6.16-30.56-29.76z m192 0L576 483.84 538.24 464l7.2 42.08L514.88 536l42.24 6.16L576 580.24l18.88-38.24 42.24-6.16-30.56-29.76z m86.88-49.84a224.8 224.8 0 0 1 3.36 37.76V597.68a91.92 91.92 0 0 0-3.28-183.6zM167.12 302l-4.4-22.48-22.48-4.4 22.48-4.4 4.4-22.48 4.4 22.48 22.48 4.4-22.48 4.4-4.4 22.48zM795.12 704.24l10.32 52.56 52.56 10.32-52.56 10.32-10.32 52.56-10.32-52.56-52.56-10.32 52.56-10.32 10.32-52.56zM868.88 672.88l-5.76 29.12-5.76-29.12-29.12-5.76 29.12-5.76 5.76-29.12 5.76 29.12 29.12 5.76-29.12 5.76z"  horiz-adv-x="1024" />

    
    <glyph glyph-name="tubiao-17" unicode="&#58912;" d="M642.4 41.12a16 16 0 0 1-14.32 8.88H518v112h-80v-112H328a16 16 0 0 1-14.32-8.88l-24-80a16 16 0 0 1 14.32-23.2h348.08a16 16 0 0 1 14.32 23.2zM704 629.68V672h34.72v58H217.28V672h34.72v-42.16h-2.08a124 124 0 1 1 13.04-247.28 226.8 226.8 0 0 1 215.04-156.56A226.8 226.8 0 0 1 692.8 382.24h5.2a123.92 123.92 0 0 1 5.92 248z m-453.92-216a92 92 0 0 0 0 184h2.08v-145.76a224.88 224.88 0 0 1 3.2-37.68c-1.84-0.08-3.6-0.24-5.36-0.24z m170.48-30.72L388 400l-32.48-17.12 6.24 36.24-26.32 25.6 36.32 5.28 16 32.96 16-32.96 36.32-5.28-26.32-25.6zM476 520l-56.88-29.92 10.88 63.28L384 597.92l63.6 9.2 28.4 57.6 28.4-57.6L568 597.92l-46-44.8 10.88-63.28z m128.48-136.72L572 400l-32.48-17.12 6.24 36.24-26.32 25.6 36.32 5.28 16 32.96 16-32.96 36.32-5.28-26.32-25.6z m96 30.88a224.8 224.8 0 0 1 3.52 37.76V597.68a91.92 91.92 0 0 0-3.28-183.6zM167.12 302l-4.4-22.48-22.48-4.4 22.48-4.4 4.4-22.48 4.4 22.48 22.48 4.4-22.48 4.4-4.4 22.48zM795.12 704.24l10.32 52.56 52.56 10.32-52.56 10.32-10.32 52.56-10.32-52.56-52.56-10.32 52.56-10.32 10.32-52.56zM868.88 672.88l-5.76 29.12-5.76-29.12-29.12-5.76 29.12-5.76 5.76-29.12 5.76 29.12 29.12 5.76-29.12 5.76z"  horiz-adv-x="1024" />

    
    <glyph glyph-name="daifukuan" unicode="&#58913;" d="M690.16 324a136 136 0 0 0 28-2.96V620a80 80 0 0 1-80 80h-344a80 80 0 0 1-80-80v-432a80 80 0 0 1 80-80h286.32a136 136 0 0 0 109.76 216zM537.44 416v-29.04H488v-22.08h49.44V336H488v-40h-44.64v40H392v28.96h51.12v22.08H392V416h41.12l-54.64 96.72h48q32.16-67.12 40.8-88.72h0.96q1.12 3.04 2.64 8 2.56 7.44 20.24 43.84l17.52 36.96h45.2L497.44 416zM689.84 308a120 120 0 1 1 120-120 120 120 0 0 1-120 120z m72-136h-80a8 8 0 0 0-8 8 8 8 0 0 0 1.2 4 8 8 0 0 0-1.2 4v56a8 8 0 0 0 16 0v-56h72a8 8 0 1 0 0-16z"  horiz-adv-x="1024" />

    
    <glyph glyph-name="dianhua" unicode="&#58914;" d="M791.36 241.36l-104 69.84a32 32 0 0 1-40.56-4l-10.32-10.32 148.72-118.96c4.72 5.76 9.44 11.6 13.84 17.36a32 32 0 0 1-7.68 46.08zM435.28 518.56a32 32 0 0 1 4 40.56l-69.84 104a32 32 0 0 1-46.08 8c-3.92-2.96-8-6.16-11.92-9.36l111.52-155.52zM609.68 270.4c-24-24-86.8-42.4-113.6-21.04l-69.84 55.6a67.44 67.44 0 0 0-11.2 11.36L368 376c-20.88 26.8 5.52 81.04 29.52 105.04l13.6 13.6-112.08 156.8c-10.8-9.2-20.4-17.92-26.16-24-94.48-94.48-62.96-279.12 70.4-412.4s318-164.88 412.4-70.4c4.8 4.8 11.68 12.32 19.2 20.88l-150.08 120z"  horiz-adv-x="1024" />

    
    <glyph glyph-name="dingdan" unicode="&#58915;" d="M696.48 667.52h-164a20.48 20.48 0 1 1-40.96 0h-164a40.96 40.96 0 0 1-40.96-40.96v-505.6a40.96 40.96 0 0 1 40.96-40.96h368.96a40.96 40.96 0 0 1 40.96 40.96V626.48a40.96 40.96 0 0 1-40.96 41.04zM560 248H376a16 16 0 0 0 0 32h184a16 16 0 0 0 0-32z m88 104H376a16 16 0 0 0 0 32h272a16 16 0 0 0 0-32z m0 96H376a16 16 0 0 0 0 32h272a16 16 0 0 0 0-32z m0 96H376a16 16 0 0 0 0 32h272a16 16 0 0 0 0-32z"  horiz-adv-x="1024" />

    
    <glyph glyph-name="dingwei" unicode="&#58916;" d="M512 724a240 240 0 0 1-240-240c0-132.56 240-440 240-440s240 307.44 240 440a240 240 0 0 1-240 240z m17.12-403.12a168 168 0 1 0 150 150 168 168 0 0 0-150-150z"  horiz-adv-x="1024" />

    
    <glyph glyph-name="yifukuan" unicode="&#58917;" d="M690.16 324a136 136 0 0 0 28-2.96V620a80 80 0 0 1-80 80h-344a80 80 0 0 1-80-80v-432a80 80 0 0 1 80-80h286.32a136 136 0 0 0 109.76 216zM537.44 416v-29.04H488v-22.08h49.44V336H488v-40h-44.64v40H392v28.96h51.12v22.08H392V416h41.12l-54.64 96.72h48q32.16-67.12 40.8-88.72h0.96q1.12 3.04 2.64 8 2.56 7.44 20.24 43.84l17.52 36.96h45.2L497.44 416zM689.84 308a120 120 0 1 1 120-120 120 120 0 0 1-120 120zM678.4 128.72a24 24 0 0 0-33.92 0l-46.8 46.8a8 8 0 0 0 11.28 11.28L656 140a8 8 0 0 1 11.36 0l103.28 103.6A8 8 0 0 0 781.92 232z"  horiz-adv-x="1024" />

    
    <glyph glyph-name="xinxiang" unicode="&#58918;" d="M772 435.44V598A130.4 130.4 0 0 1 642 728h-260A130.4 130.4 0 0 1 252 598v-162.56h227.52v-422.56H360V-16h304v28.88H544.48V435.44z m-205.84 160c0 60.88 42 110.72 93.28 110.72S752.8 656.48 752.8 595.6v-138.48H566.16z"  horiz-adv-x="1024" />

    
    <glyph glyph-name="xinxi" unicode="&#58919;" d="M815.52 549.04L560 390.08a61.92 61.92 0 0 0-29.6-7.52 60.56 60.56 0 0 0-26.4 6L209.04 552a32 32 0 0 1-1.04-8v-320a32 32 0 0 1 32-32h544a32 32 0 0 1 32 32V544a32 32 0 0 1-0.48 5.04zM552 403.92l256.96 160A32 32 0 0 1 784 576H240a32 32 0 0 1-23.28-10.16l294.8-163.04a44.88 44.88 0 0 1 40.48 1.12z"  horiz-adv-x="1024" />

    
    <glyph glyph-name="tubiao-18" unicode="&#58920;" d="M814 458.32L531.68 696.8a30.48 30.48 0 0 1-39.36 0L210 458.32a30.48 30.48 0 0 1 19.68-53.84h67.92v-282.16a58.32 58.32 0 0 1 58.32-58.32H440V257.36A22.64 22.64 0 0 0 462.64 280h98.72A22.64 22.64 0 0 0 584 257.36V64h84.08a58.32 58.32 0 0 1 58.32 58.32V404.48h67.92a30.48 30.48 0 0 1 19.68 53.84z"  horiz-adv-x="1024" />

    
    <glyph glyph-name="tubiao-19" unicode="&#58921;" d="M512 632c-190 0-344-100.32-344-224 0-117.36 138.48-213.6 314.8-223.28A205.12 205.12 0 0 0 440 136a384 384 0 0 1 152.64 54C744 213.68 856 302.16 856 408c0 123.68-154 224-344 224zM424 544h224a16 16 0 0 0 0-32H424a16 16 0 0 0 0 32zM288 400a16 16 0 0 0 0 32h224a16 16 0 0 0 0-32z m448-112H512a16 16 0 0 0 0 32h224a16 16 0 0 0 0-32z"  horiz-adv-x="1024" />

    


  </font>
</defs>
</svg>
